<?xml version="1.0" encoding="utf-8"?>
<!-- Generator: Adobe Illustrator 25.1.0, SVG Export Plug-In . SVG Version: 6.00 Build 0)  -->
<svg version="1.1" id="Layer_1" xmlns="http://www.w3.org/2000/svg" xmlns:xlink="http://www.w3.org/1999/xlink" x="0px" y="0px"
	 viewBox="0 0 595.28 595.28" style="enable-background:new 0 0 595.28 595.28;" xml:space="preserve">
<style type="text/css">
	.st0{fill:#FFFFFF;}
</style>
<g id="Layer_2">
</g>
<g>
	<g>
		<path class="st0" d="M501.34,211.29c-0.49,0-0.99-0.13-1.44-0.39l-39.84-23.15l-36.89,23.1c-0.92,0.57-2.07,0.58-3,0.03
			l-38.96-23.45l-37.03,23.42c-0.95,0.6-2.16,0.59-3.1-0.02l-82.64-53.86l-75.92,53.8c-0.85,0.6-1.96,0.7-2.9,0.25l-45.43-21.77
			l-44.46,21.25c-1.33,0.64-2.93,0.16-3.69-1.1c-0.76-1.26-0.44-2.9,0.74-3.78l29.59-22.12l31.7-31.7l25.78-30.75
			c0.67-0.8,1.72-1.17,2.74-0.97c1.02,0.2,1.86,0.94,2.18,1.93l8.53,26.26l6.69,9.75l7.19-15.84c0.07-0.16,0.16-0.31,0.25-0.45
			l20.35-29.35l14.07-19.67l15.37-25.25c0.1-0.17,0.22-0.32,0.35-0.46l12.78-13.76c0.7-0.75,1.75-1.07,2.75-0.84
			c1,0.23,1.8,0.99,2.09,1.97l10.12,34l17.46,32.44l6.79,8.71l5.72-15.37c0.06-0.17,0.14-0.33,0.24-0.49l12.15-20.01
			c0.54-0.89,1.5-1.42,2.56-1.38c1.04,0.04,1.98,0.64,2.45,1.57l17.86,35.44l26.91,27.63l6.02-10.52c0.11-0.2,0.25-0.38,0.41-0.55
			l14.08-14.81l12.3-25.45c0.49-1.02,1.54-1.66,2.67-1.62c1.13,0.03,2.13,0.73,2.57,1.77l17.63,42.79l22.7,20.18l22.6,4.15
			c0.46,0.09,0.9,0.28,1.27,0.58l8.83,7.05c0.17,0.13,0.32,0.28,0.45,0.45l20.58,25.68c0.86,1.08,0.84,2.62-0.07,3.66
			C502.96,210.94,502.16,211.29,501.34,211.29z M134.19,183.2c0.42,0,0.85,0.09,1.24,0.28l45.15,21.63l76.14-53.95
			c0.96-0.68,2.24-0.71,3.22-0.06l82.74,53.92l36.97-23.38c0.92-0.58,2.08-0.59,3.01-0.03l38.97,23.46l36.86-23.09
			c0.9-0.56,2.04-0.58,2.96-0.05l28.05,16.3l-10.77-13.44l-8.02-6.4l-22.68-4.17c-0.51-0.09-0.99-0.33-1.39-0.68l-23.79-21.16
			c-0.33-0.29-0.58-0.65-0.75-1.05l-15.44-37.48l-9.71,20.09c-0.13,0.27-0.3,0.51-0.5,0.73l-14.15,14.89l-7.74,13.52
			c-0.45,0.78-1.23,1.31-2.13,1.42c-0.89,0.11-1.79-0.2-2.41-0.84l-29.87-30.67c-0.2-0.21-0.38-0.45-0.51-0.71l-15.73-31.22
			l-9.33,15.36l-7.42,19.93c-0.36,0.97-1.22,1.68-2.25,1.83c-1.04,0.16-2.06-0.25-2.7-1.07l-10.09-12.96
			c-0.1-0.13-0.19-0.26-0.26-0.4l-17.72-32.91c-0.09-0.17-0.17-0.35-0.22-0.54l-8.77-29.48l-9.17,9.87L240.7,95.76
			c-0.04,0.06-0.08,0.12-0.12,0.18l-14.1,19.72l-20.18,29.11L197.12,165c-0.43,0.94-1.33,1.58-2.36,1.67
			c-1.04,0.09-2.03-0.38-2.62-1.23l-9.8-14.28c-0.16-0.23-0.28-0.48-0.36-0.74l-7.06-21.74l-22.53,26.88
			c-0.05,0.06-0.11,0.13-0.17,0.19l-31.93,31.93c-0.1,0.1-0.2,0.19-0.31,0.27l-6.41,4.79l19.39-9.27
			C133.35,183.29,133.77,183.2,134.19,183.2z"/>
	</g>
	<g>
		<path class="st0" d="M61.99,400.36l1.05-20.74v-1.05l1.75-57.33l26.57,39.73l27.15-39.85l1.63,69.21v0.23
			c0,2.91,0.12,6.06,0.35,10.25h-4.19c0.12-5.13,0.12-9.67,0.12-13.63v-1.4l-1.28-52.9L91.24,367.5L68.4,333.82l-2.1,67h-4.31
			V400.36z"/>
		<path class="st0" d="M202.62,336.62c5.24,7.22,8.04,15.96,8.04,25.75c0,10.49-3.26,19.92-9.44,27.15
			c-7.22,8.51-17.59,13.4-28.43,13.4c-11.07,0-21.91-5.71-28.66-15.03c-4.89-6.87-7.69-16.2-7.69-26.1
			c0-22.37,16.66-41.01,36.47-41.01C183.98,320.77,195.28,326.83,202.62,336.62z M148.33,337.44c-5.13,6.99-8.27,16.31-8.27,24.7
			c0,21.21,14.1,37.52,32.62,37.52c11.3,0,20.74-5.13,27.26-14.68c4.54-6.76,7.22-15.26,7.22-22.95c0-9.21-3.26-18.29-9.44-26.1
			c-5.83-7.46-14.56-11.65-24.12-11.65C163.24,324.27,154.85,328.7,148.33,337.44z"/>
		<path class="st0" d="M226.62,400.82c0.23-1.98,0.35-3.26,0.35-8.39l0.12-58.14c0-7.92,0-9.67-0.12-10.95h4.66
			c-0.47,7.92-0.58,10.84-0.58,13.87v60.36l20.39,0.12c8.62,0,15.96-0.23,18.18-0.47l-1.05,3.61H226.62z"/>
		<path class="st0" d="M268.69,340.23l-0.23-1.05c-3.61-10.14-5.59-15.5-5.71-16.08l4.19-1.63l23.77,71.08l18.76-51.38l0.23-0.93
			l6.06-17.48l0.12-0.7l4.08,1.28l-29.36,79.58L268.69,340.23z"/>
		<path class="st0" d="M330.55,399.89l0.23-62.34v-1.4c0-4.08-0.12-7.92-0.35-12.47l22.37,0.23h1.4l17.59-0.12h0.47l-1.4,3.61
			l-0.7-0.12l-9.9-0.23h-0.93l-24.58-0.12l-0.12,38.68h0.93l20.97,0.23c5.59,0,8.27,0,15.73-0.23l-1.28,3.26l-8.62-0.12l-27.61,0.23
			l-0.12,28.66h25.05h1.17c5.36,0,7.92,0,12.7-0.12l-1.4,3.26h-41.6V399.89z"/>
		<path class="st0" d="M389.86,400.82c0.58-7.11,0.7-9.09,0.7-10.84l1.28-67.7l46.14,68.16l0.82-57.33v-1.05v-7.11l-0.12-1.51h5.13
			c-0.58,4.66-0.82,8.85-0.82,13.05v1.4c0,2.56-0.23,14.91-0.82,33.32c-0.12,4.43-0.35,17.48-0.47,31.69
			c-17.48-26.33-21.9-32.74-46.61-68.4l-0.82,56.86c0,1.86,0.12,4.66,0.47,9.44H389.86z"/>
		<path class="st0" d="M525.24,336.62c5.24,7.22,8.04,15.96,8.04,25.75c0,10.49-3.26,19.92-9.44,27.15
			c-7.22,8.51-17.59,13.4-28.43,13.4c-11.07,0-21.91-5.71-28.66-15.03c-4.89-6.87-7.69-16.2-7.69-26.1
			c0-22.37,16.66-41.01,36.47-41.01C506.6,320.77,517.9,326.83,525.24,336.62z M470.95,337.44c-5.13,6.99-8.27,16.31-8.27,24.7
			c0,21.21,14.1,37.52,32.62,37.52c11.3,0,20.74-5.13,27.26-14.68c4.54-6.76,7.22-15.26,7.22-22.95c0-9.21-3.26-18.29-9.44-26.1
			c-5.83-7.46-14.56-11.65-24.12-11.65C485.86,324.27,477.47,328.7,470.95,337.44z"/>
	</g>
	<g>
		<path class="st0" d="M204.25,455.63h-4.7v-36.1h11.17c2.74,0,4.81,0.4,6.19,1.19c1.38,0.79,2.47,1.93,3.28,3.43
			c0.81,1.5,1.21,3.12,1.21,4.87c0,1.41-0.27,2.76-0.81,4.06s-1.3,2.47-2.28,3.51c-0.98,1.05-2.51,1.98-4.59,2.8
			c0.78,0.43,1.36,0.85,1.75,1.23c0.39,0.39,0.86,1.02,1.42,1.88c0.56,0.87,1.05,1.68,1.47,2.44l5.74,10.68h-5.39l-4.98-9.49
			c-1.21-2.29-2.79-4.3-4.74-6.02h-4.75V455.63z M204.25,436.51h4.59c1.94,0,3.41-0.3,4.42-0.9c1-0.6,1.8-1.47,2.39-2.61
			c0.59-1.14,0.89-2.37,0.89-3.67c0-1.13-0.23-2.15-0.7-3.04s-1.15-1.64-2.05-2.25c-0.9-0.61-2.43-0.91-4.59-0.91h-4.94V436.51z"/>
		<path class="st0" d="M231.61,455.63v-36.1h20.4v3.98h-15.7v11.38h13.73v3.61h-13.73v13.17h16.96v3.98H231.61z"/>
		<path class="st0" d="M261.35,447.53h4.7v0.23c0,2,0.71,3.39,2.12,4.17c1.41,0.78,3.29,1.17,5.63,1.17c2.05,0,3.76-0.6,5.15-1.79
			c1.39-1.2,2.08-2.77,2.08-4.73c0-1.58-0.6-2.88-1.79-3.89c-1.19-0.99-3-1.99-5.44-2.98l-1.88-0.77c-2.56-1.06-4.46-2.1-5.73-3.13
			c-1.26-1.03-2.2-2.18-2.82-3.43c-0.62-1.26-0.93-2.66-0.93-4.21c0-2.73,0.96-5.04,2.89-6.91c1.93-1.88,4.95-2.82,9.05-2.82
			c3.76,0,6.41,0.7,7.95,2.09c1.53,1.4,2.3,3.02,2.3,4.89v0.23h-4.7v-0.23c0-0.59-0.24-1.17-0.71-1.75
			c-0.47-0.57-1.18-0.99-2.12-1.24s-1.98-0.38-3.11-0.38c-2.31,0-4.01,0.58-5.12,1.73s-1.66,2.47-1.66,3.95
			c0,0.99,0.26,1.93,0.79,2.81s1.25,1.6,2.17,2.18c0.92,0.57,2.47,1.34,4.66,2.3l2.21,0.95c3.53,1.54,5.89,3.15,7.09,4.84
			c1.18,1.69,1.77,3.51,1.77,5.46c0,1.81-0.48,3.57-1.44,5.27c-0.96,1.7-2.29,2.98-4,3.86c-1.71,0.88-3.98,1.31-6.82,1.31
			c-2.7,0-4.95-0.32-6.76-0.96c-1.81-0.64-3.18-1.7-4.12-3.17c-0.94-1.47-1.41-3.08-1.41-4.83V447.53z"/>
		<path class="st0" d="M308.37,456.72c-4.51,0-8.2-1.66-11.05-4.98s-4.28-8.04-4.28-14.17s1.43-10.84,4.28-14.16
			c2.85-3.31,6.54-4.97,11.05-4.97s8.2,1.66,11.06,4.97c2.86,3.31,4.29,8.03,4.29,14.16s-1.43,10.85-4.29,14.17
			S312.88,456.72,308.37,456.72z M308.38,453.12c3.29,0,5.86-1.42,7.71-4.25s2.77-6.59,2.77-11.28c0-4.67-0.92-8.43-2.77-11.27
			c-1.85-2.84-4.42-4.26-7.71-4.26c-3.28,0-5.84,1.42-7.7,4.26c-1.85,2.84-2.78,6.6-2.78,11.27c0,4.69,0.93,8.45,2.78,11.28
			C302.54,451.7,305.1,453.12,308.38,453.12z"/>
		<path class="st0" d="M337.19,455.63h-4.7v-36.1h11.17c2.74,0,4.81,0.4,6.19,1.19c1.38,0.79,2.47,1.93,3.28,3.43
			c0.81,1.5,1.21,3.12,1.21,4.87c0,1.41-0.27,2.76-0.81,4.06s-1.3,2.47-2.28,3.51c-0.98,1.05-2.51,1.98-4.59,2.8
			c0.78,0.43,1.36,0.85,1.75,1.23c0.39,0.39,0.86,1.02,1.42,1.88c0.56,0.87,1.05,1.68,1.47,2.44l5.74,10.68h-5.39l-4.98-9.49
			c-1.21-2.29-2.79-4.3-4.74-6.02h-4.75V455.63z M337.19,436.51h4.59c1.94,0,3.41-0.3,4.42-0.9c1-0.6,1.8-1.47,2.39-2.61
			c0.59-1.14,0.89-2.37,0.89-3.67c0-1.13-0.23-2.15-0.7-3.04s-1.15-1.64-2.05-2.25c-0.9-0.61-2.43-0.91-4.59-0.91h-4.94V436.51z"/>
		<path class="st0" d="M374.14,455.63v-32.5h-12.28v-3.61h29.08v3.61h-12.1v32.5H374.14z"/>
	</g>
	<g>
		<path class="st0" d="M314.11,300.49c-0.29,0-0.59-0.06-0.88-0.18c-21.93-9.29-37.12-15.07-62.29-13.56l-4.78,0.36
			c-1.27,0.09-2.32-0.83-2.42-2.06c-0.1-1.23,0.81-2.32,2.04-2.43c1.69-0.15,3.34-0.28,4.94-0.38l64.17-4.89l-109.05-3.31
			c-1.21-0.04-2.18-1.03-2.19-2.24c-0.01-1.22,0.95-2.22,2.17-2.26l142.47-5.53l-191.87-4.57c-1.22-0.03-2.2-1.03-2.2-2.25
			s0.97-2.23,2.19-2.26l183.88-4.94l-221.83-2.67c-1.23-0.01-2.22-1.01-2.23-2.24s0.97-2.24,2.2-2.27l252.47-6.65l-285.9-2.02
			c-1.25-0.01-2.25-1.03-2.24-2.27c0.01-1.24,1.02-2.24,2.25-2.24c0,0,0.01,0,0.02,0l420.92,2.98c1.23,0.01,2.23,1,2.24,2.23
			c0.01,1.23-0.96,2.24-2.2,2.28l-270,7.11l220.23,2.66c1.23,0.01,2.22,1.01,2.23,2.24c0.01,1.23-0.97,2.24-2.19,2.27l-210.73,5.66
			l174.87,4.16c1.22,0.03,2.19,1.02,2.2,2.24c0.01,1.22-0.95,2.22-2.17,2.27l-149.3,5.8l86.2,2.62c1.2,0.04,2.16,1,2.19,2.2
			c0.03,1.2-0.89,2.21-2.08,2.3l-75.85,5.79c10.96,2.43,21.16,6.55,33.41,11.74c1.15,0.49,1.68,1.81,1.2,2.96
			C315.83,299.98,314.99,300.49,314.11,300.49z"/>
	</g>
	<g>
		<polygon class="st0" points="203.79,143.35 194.51,163.82 184.7,149.54 176.04,122.88 191.52,135.32 		"/>
		<path class="st0" d="M194.5,166.68c-0.94,0-1.82-0.46-2.36-1.24l-9.8-14.28c-0.16-0.23-0.28-0.48-0.36-0.74l-8.66-26.66
			c-0.39-1.21,0.06-2.52,1.1-3.24c1.04-0.72,2.44-0.67,3.42,0.12L193.21,133l12.15,7.95c1.18,0.77,1.62,2.3,1.04,3.58L197.12,165
			c-0.43,0.94-1.33,1.58-2.36,1.67C194.67,166.68,194.59,166.68,194.5,166.68z M187.3,148.26l6.69,9.75l6.17-13.6l-10.21-6.68
			c-0.08-0.05-0.15-0.11-0.23-0.16l-7.99-6.42L187.3,148.26z"/>
	</g>
	<g>
		<polygon class="st0" points="311.98,115.14 304.47,135.32 294.38,122.37 276.66,89.46 266.46,55.17 284.69,79.83 297.47,99.09 		
			"/>
		<path class="st0" d="M304.47,138.19c-0.88,0-1.71-0.4-2.26-1.11l-10.09-12.96c-0.1-0.13-0.19-0.26-0.26-0.4l-17.72-32.91
			c-0.09-0.17-0.17-0.35-0.22-0.54l-10.21-34.28c-0.4-1.33,0.22-2.76,1.47-3.38c1.25-0.62,2.76-0.26,3.58,0.86l18.23,24.65
			c0.03,0.04,0.06,0.08,0.08,0.12l12.67,19.08l14.36,15.89c0.72,0.79,0.93,1.92,0.56,2.92l-7.51,20.18
			c-0.36,0.97-1.22,1.68-2.25,1.83C304.76,138.18,304.61,138.19,304.47,138.19z M296.79,120.8l6.79,8.71l5.11-13.74l-13.34-14.76
			c-0.1-0.11-0.18-0.22-0.26-0.34l-12.75-19.2l-8.48-11.46l5.46,18.35L296.79,120.8z"/>
	</g>
	<g>
		<polygon class="st0" points="379.97,147.82 372.06,161.64 342.19,130.97 324.13,95.13 336.23,106.94 350.79,120.47 365.01,139.22 
					"/>
		<path class="st0" d="M372.06,164.51c-0.77,0-1.51-0.31-2.05-0.87l-29.87-30.67c-0.2-0.21-0.38-0.45-0.51-0.71l-18.06-35.83
			c-0.63-1.25-0.26-2.77,0.87-3.6c1.13-0.83,2.69-0.72,3.7,0.26l12.1,11.81l14.51,13.48c0.12,0.11,0.23,0.24,0.33,0.37l13.87,18.28
			l14.46,8.31c1.37,0.79,1.84,2.54,1.06,3.91l-7.91,13.82c-0.45,0.78-1.23,1.31-2.13,1.42C372.3,164.5,372.18,164.51,372.06,164.51z
			 M344.55,129.28l26.91,27.63l4.6-8.03l-12.48-7.17c-0.33-0.19-0.62-0.45-0.86-0.75l-14.07-18.55l-14.24-13.23L344.55,129.28z"/>
	</g>
	<g>
		<polygon class="st0" points="471.93,175.68 448.54,171.39 424.75,150.23 406.86,106.83 437.19,147.82 		"/>
		<path class="st0" d="M471.94,178.55c-0.17,0-0.35-0.02-0.52-0.05l-23.39-4.3c-0.51-0.09-0.99-0.33-1.39-0.68l-23.79-21.16
			c-0.33-0.29-0.58-0.65-0.75-1.05l-17.89-43.4c-0.55-1.34-0.02-2.88,1.24-3.59c1.26-0.71,2.85-0.37,3.71,0.79l30.11,40.69
			l34.45,27.63c1.02,0.82,1.36,2.23,0.81,3.43C474.07,177.91,473.04,178.55,471.94,178.55z M449.85,168.71l11.43,2.1l-25.88-20.75
			c-0.19-0.15-0.36-0.33-0.51-0.53l-16.54-22.36l8.8,21.35L449.85,168.71z"/>
	</g>
	<g>
		<g>
			<g>
				<path class="st0" d="M415.37,520.52c2.08-2.41,4.15-4.78,6.16-7.19l5.78-7.52l9.56-0.55l4.83-0.3c1.6-0.13,3.17-0.34,4.76-0.5
					c-3.86-4.24-7.63-8.44-11.42-12.79c1.91-5.67,3.63-11.42,5.28-17.04l-8.39,3.65c-2.77,1.28-5.69,2.17-8.52,3.28
					c-4.86-3.19-9.61-6.44-14.25-9.73c0.07,5.72,0.1,11.59-0.07,17.23l-15.46,9.82c5.61,1.78,11.37,3.51,17.26,5.19L415.37,520.52z"
					/>
			</g>
		</g>
		<g>
			<g>
				<path class="st0" d="M349.3,538.72l7.5-5.91c2.47-1.92,4.82-4.2,7.18-6.27l9.57,1.17c3.22,0.38,6.48,0.81,9.68,0.93
					c-3.07-4.84-6.04-9.64-8.99-14.64c2.93-5.16,5.61-10.61,8.19-15.83l-8.85,2.13c-2.95,0.69-5.96,1.09-8.93,1.65
					c-4.18-4.03-8.22-8.09-12.11-12.17c-0.96,5.72-2.06,11.25-3.29,16.81l-8.45,3.36l-4.27,1.69l-2.14,0.85l-2.17,0.7
					c2.59,1.63,5.19,2.93,7.84,4.34l8.07,4.15L349.3,538.72z"/>
			</g>
		</g>
		<g>
			<g>
				<path class="st0" d="M280.43,542.97c5.83-2.9,11.49-5.59,16.99-8.71c6.03,2.03,12.19,4.06,18.47,6.06
					c-2.02-5.44-3.95-10.88-5.79-16.33c1.97-2.24,3.9-4.37,5.78-6.68c1.87-2.34,3.7-4.69,5.49-7.02l-4.53,0.19l-2.26,0.09
					l-2.27-0.06l-9.06-0.23c-3.23-4.82-6.31-9.44-9.22-14.43c-2.13,5.21-4.39,10.43-6.78,15.64l-8.97,1.61l-2.26,0.4l-2.26,0.25
					l-4.54,0.5c2.19,2.04,4.42,4.11,6.7,6.13l7,5.68L280.43,542.97z"/>
			</g>
		</g>
		<g>
			<g>
				<path class="st0" d="M212.36,532.46c6.28-1.64,12.41-3.32,18.39-5.04c2.67,1.86,5.46,3.32,8.24,4.96l8.47,4.82
					c-0.8-5.72-1.52-11.43-2.15-17.13c2.41-1.77,4.77-3.54,7.09-5.33c2.32-1.78,4.59-3.53,6.85-5.51l-2.24-0.36l-2.22-0.51
					l-4.43-1.02l-8.83-2.04c-2.16-5.22-4.12-10.76-5.94-16.21c-3.21,4.67-6.54,9.32-9.97,13.94c-3.02-0.11-6.11-0.03-9.12-0.3
					l-9.11-0.78l5.33,7.31l2.75,3.67l2.87,3.47L212.36,532.46z"/>
			</g>
		</g>
		<g>
			<g>
				<path class="st0" d="M148.29,509.03c6.41-0.5,12.7-1.07,18.88-1.69l3.46,3.34l3.6,3.14l7.32,6.29
					c0.35-5.75,0.76-11.47,1.25-17.17c5.41-2.56,10.68-5.18,15.81-7.85l-16.68-7.35c-1.11-5.61-2-11.48-2.83-17.13
					c-4.06,3.99-8.2,7.95-12.44,11.87c-6.02-1.1-11.87-2.76-17.81-4.34l3.98,8.12c1.35,2.73,2.73,5.47,4.22,8.05L148.29,509.03z"/>
			</g>
		</g>
	</g>
</g>
</svg>
