<?xml version="1.0" encoding="utf-8"?>
<!-- Generator: Adobe Illustrator 25.1.0, SVG Export Plug-In . SVG Version: 6.00 Build 0)  -->
<svg version="1.1" id="Layer_1" xmlns="http://www.w3.org/2000/svg" xmlns:xlink="http://www.w3.org/1999/xlink" x="0px" y="0px"
	 viewBox="0 0 595.28 595.28" style="enable-background:new 0 0 595.28 595.28;" xml:space="preserve">
<style type="text/css">
	.st0{fill:#FFFFFF;}
</style>
<g id="Layer_2">
</g>
<g>
	<g>
		<path d="M501.35,211.24c-0.49,0-0.99-0.13-1.44-0.39l-39.84-23.15l-36.89,23.1c-0.92,0.57-2.08,0.58-3,0.03l-38.96-23.45
			l-37.03,23.42c-0.95,0.6-2.16,0.59-3.1-0.02l-82.65-53.86l-75.92,53.8c-0.85,0.6-1.96,0.7-2.9,0.25l-45.43-21.77l-44.46,21.25
			c-1.33,0.64-2.93,0.16-3.69-1.1s-0.44-2.9,0.74-3.78l29.59-22.12l31.7-31.7l25.77-30.75c0.67-0.8,1.72-1.17,2.74-0.97
			c1.02,0.2,1.86,0.94,2.18,1.93l8.53,26.26l6.7,9.75l7.19-15.84c0.07-0.16,0.16-0.31,0.25-0.45l20.35-29.35l14.07-19.67
			l15.37-25.25c0.1-0.17,0.22-0.32,0.35-0.46l12.79-13.76c0.7-0.75,1.75-1.07,2.75-0.84c1,0.23,1.8,0.99,2.09,1.97l10.12,34
			l17.46,32.44l6.79,8.71l5.72-15.37c0.06-0.17,0.14-0.33,0.24-0.49l12.15-20.01c0.54-0.89,1.5-1.42,2.56-1.38
			c1.04,0.04,1.98,0.64,2.45,1.57l17.86,35.44l26.91,27.63l6.02-10.52c0.11-0.2,0.25-0.38,0.41-0.55l14.08-14.81l12.3-25.45
			c0.48-0.99,1.48-1.62,2.58-1.62c0.03,0,0.06,0,0.09,0c1.13,0.03,2.13,0.73,2.57,1.77l17.64,42.79l22.7,20.18l22.6,4.15
			c0.46,0.09,0.9,0.28,1.27,0.58l8.83,7.05c0.17,0.13,0.32,0.28,0.45,0.45l20.58,25.68c0.86,1.08,0.84,2.62-0.06,3.66
			C502.96,210.89,502.16,211.24,501.35,211.24z M134.19,183.15c0.42,0,0.85,0.09,1.24,0.28l45.15,21.63l76.14-53.95
			c0.96-0.68,2.24-0.71,3.22-0.06l82.74,53.92l36.97-23.38c0.92-0.58,2.08-0.59,3.01-0.03l38.97,23.46l36.86-23.09
			c0.9-0.57,2.04-0.58,2.96-0.05l28.05,16.3l-10.77-13.44l-8.02-6.4l-22.68-4.17c-0.51-0.09-0.99-0.33-1.39-0.68l-23.79-21.16
			c-0.32-0.29-0.58-0.65-0.75-1.05l-15.45-37.48l-9.71,20.09c-0.13,0.27-0.3,0.51-0.5,0.73l-14.15,14.89l-7.74,13.52
			c-0.45,0.78-1.23,1.31-2.13,1.42c-0.89,0.11-1.79-0.2-2.41-0.84l-29.87-30.67c-0.2-0.21-0.38-0.45-0.51-0.71l-15.73-31.22
			l-9.33,15.36l-7.42,19.93c-0.36,0.97-1.22,1.68-2.25,1.83c-1.03,0.16-2.06-0.25-2.7-1.07l-10.09-12.96
			c-0.1-0.13-0.19-0.26-0.26-0.4l-17.71-32.91c-0.09-0.17-0.17-0.35-0.22-0.54l-8.77-29.47l-9.17,9.87L240.7,95.71
			c-0.04,0.06-0.08,0.12-0.12,0.18l-14.1,19.72l-20.18,29.11l-9.18,20.23c-0.43,0.94-1.33,1.58-2.36,1.67
			c-1.04,0.09-2.03-0.38-2.62-1.23l-9.8-14.28c-0.16-0.23-0.28-0.48-0.36-0.74l-7.06-21.74l-22.53,26.88
			c-0.05,0.06-0.11,0.13-0.17,0.19l-31.93,31.93c-0.1,0.1-0.2,0.19-0.31,0.27l-6.41,4.79l19.39-9.27
			C133.35,183.24,133.77,183.15,134.19,183.15z"/>
	</g>
	<g>
		<path d="M61.99,400.3l1.05-20.74v-1.05l1.75-57.33l26.57,39.73l27.15-39.85l1.63,69.21v0.23c0,2.91,0.12,6.06,0.35,10.25h-4.19
			c0.12-5.13,0.12-9.67,0.12-13.63v-1.4l-1.28-52.9l-23.89,34.61L68.4,333.77l-2.1,67h-4.31V400.3z"/>
		<path d="M202.62,336.57c5.24,7.22,8.04,15.96,8.04,25.75c0,10.49-3.26,19.92-9.44,27.15c-7.22,8.5-17.59,13.4-28.43,13.4
			c-11.07,0-21.91-5.71-28.66-15.03c-4.89-6.87-7.69-16.2-7.69-26.1c0-22.37,16.66-41.01,36.47-41.01
			C183.98,320.72,195.28,326.78,202.62,336.57z M148.33,337.39c-5.13,6.99-8.27,16.31-8.27,24.7c0,21.21,14.1,37.52,32.62,37.52
			c11.3,0,20.74-5.13,27.26-14.68c4.54-6.76,7.22-15.26,7.22-22.95c0-9.21-3.26-18.29-9.44-26.1c-5.83-7.46-14.56-11.65-24.12-11.65
			C163.24,324.22,154.85,328.65,148.33,337.39z"/>
		<path d="M226.62,400.77c0.23-1.98,0.35-3.26,0.35-8.39l0.12-58.14c0-7.92,0-9.67-0.12-10.95h4.66
			c-0.47,7.92-0.58,10.84-0.58,13.87v60.36l20.39,0.12c8.62,0,15.96-0.23,18.18-0.47l-1.05,3.61H226.62z"/>
		<path d="M268.69,340.18l-0.23-1.05c-3.61-10.14-5.59-15.5-5.71-16.08l4.19-1.63l23.77,71.08l18.76-51.38l0.23-0.93l6.06-17.48
			l0.12-0.7l4.08,1.28l-29.36,79.58L268.69,340.18z"/>
		<path d="M330.55,399.84l0.23-62.34v-1.4c0-4.08-0.12-7.92-0.35-12.47l22.37,0.23h1.4l17.59-0.12h0.47l-1.4,3.61l-0.7-0.12
			l-9.9-0.23h-0.93l-24.58-0.12l-0.12,38.68h0.93l20.97,0.23c5.59,0,8.27,0,15.73-0.23l-1.28,3.26l-8.62-0.12l-27.61,0.23
			l-0.12,28.66h25.05h1.17c5.36,0,7.92,0,12.7-0.12l-1.4,3.26h-41.6V399.84z"/>
		<path d="M389.86,400.77c0.58-7.11,0.7-9.09,0.7-10.84l1.28-67.7l46.14,68.16l0.82-57.33v-1.05v-7.11l-0.12-1.52h5.13
			c-0.58,4.66-0.82,8.86-0.82,13.05v1.4c0,2.56-0.23,14.91-0.82,33.32c-0.12,4.43-0.35,17.48-0.47,31.69
			c-17.48-26.33-21.91-32.74-46.61-68.4l-0.82,56.86c0,1.86,0.12,4.66,0.47,9.44H389.86z"/>
		<path d="M525.24,336.57c5.24,7.22,8.04,15.96,8.04,25.75c0,10.49-3.26,19.92-9.44,27.15c-7.22,8.5-17.59,13.4-28.43,13.4
			c-11.07,0-21.91-5.71-28.66-15.03c-4.89-6.87-7.69-16.2-7.69-26.1c0-22.37,16.66-41.01,36.47-41.01
			C506.6,320.72,517.9,326.78,525.24,336.57z M470.95,337.39c-5.13,6.99-8.27,16.31-8.27,24.7c0,21.21,14.1,37.52,32.62,37.52
			c11.3,0,20.74-5.13,27.26-14.68c4.54-6.76,7.22-15.26,7.22-22.95c0-9.21-3.26-18.29-9.44-26.1c-5.83-7.46-14.56-11.65-24.12-11.65
			C485.86,324.22,477.47,328.65,470.95,337.39z"/>
	</g>
	<g>
		<path d="M204.25,455.58h-4.7v-36.1h11.17c2.74,0,4.81,0.4,6.19,1.19c1.38,0.79,2.47,1.93,3.28,3.43c0.81,1.5,1.21,3.12,1.21,4.87
			c0,1.41-0.27,2.76-0.81,4.06s-1.3,2.47-2.28,3.51c-0.98,1.05-2.51,1.98-4.59,2.8c0.78,0.43,1.36,0.85,1.75,1.23
			c0.39,0.39,0.86,1.02,1.42,1.88c0.56,0.87,1.05,1.68,1.47,2.44l5.74,10.68h-5.39l-4.98-9.49c-1.21-2.29-2.79-4.3-4.74-6.02h-4.75
			V455.58z M204.25,436.46h4.59c1.94,0,3.41-0.3,4.42-0.9c1-0.6,1.8-1.47,2.39-2.61c0.59-1.14,0.89-2.37,0.89-3.67
			c0-1.13-0.23-2.15-0.7-3.04s-1.15-1.64-2.05-2.25c-0.9-0.61-2.43-0.91-4.59-0.91h-4.94V436.46z"/>
		<path d="M231.61,455.58v-36.1h20.4v3.98h-15.7v11.38h13.73v3.61h-13.73v13.17h16.96v3.98H231.61z"/>
		<path d="M261.35,447.49h4.7v0.23c0,2,0.71,3.39,2.12,4.17c1.41,0.78,3.29,1.17,5.63,1.17c2.05,0,3.76-0.6,5.15-1.79
			c1.39-1.2,2.08-2.77,2.08-4.73c0-1.58-0.6-2.88-1.79-3.89c-1.19-0.99-3-1.99-5.44-2.98l-1.88-0.77c-2.56-1.06-4.46-2.1-5.73-3.13
			c-1.26-1.03-2.2-2.18-2.82-3.43c-0.62-1.26-0.93-2.66-0.93-4.21c0-2.73,0.96-5.04,2.89-6.91c1.93-1.88,4.95-2.82,9.05-2.82
			c3.76,0,6.41,0.7,7.95,2.09c1.53,1.4,2.3,3.02,2.3,4.89v0.23h-4.7v-0.23c0-0.59-0.24-1.17-0.71-1.75
			c-0.47-0.57-1.18-0.99-2.12-1.24s-1.98-0.38-3.11-0.38c-2.31,0-4.01,0.58-5.12,1.73s-1.66,2.47-1.66,3.95
			c0,0.99,0.26,1.93,0.79,2.81s1.25,1.6,2.17,2.18c0.92,0.57,2.47,1.34,4.66,2.3l2.21,0.95c3.53,1.54,5.89,3.15,7.09,4.84
			c1.18,1.69,1.77,3.51,1.77,5.46c0,1.81-0.48,3.57-1.44,5.27c-0.96,1.7-2.29,2.98-4,3.86c-1.71,0.88-3.98,1.31-6.82,1.31
			c-2.7,0-4.95-0.32-6.76-0.96c-1.81-0.64-3.18-1.7-4.12-3.17c-0.94-1.47-1.41-3.08-1.41-4.83V447.49z"/>
		<path d="M308.37,456.67c-4.51,0-8.2-1.66-11.05-4.98s-4.28-8.04-4.28-14.17s1.43-10.84,4.28-14.16c2.85-3.31,6.54-4.97,11.05-4.97
			s8.2,1.66,11.06,4.97c2.86,3.31,4.29,8.03,4.29,14.16s-1.43,10.85-4.29,14.17S312.88,456.67,308.37,456.67z M308.38,453.07
			c3.29,0,5.86-1.42,7.71-4.25s2.77-6.59,2.77-11.28c0-4.67-0.92-8.43-2.77-11.27c-1.85-2.84-4.42-4.26-7.71-4.26
			c-3.28,0-5.84,1.42-7.7,4.26c-1.85,2.84-2.78,6.6-2.78,11.27c0,4.69,0.93,8.45,2.78,11.28
			C302.54,451.65,305.1,453.07,308.38,453.07z"/>
		<path d="M337.19,455.58h-4.7v-36.1h11.17c2.74,0,4.81,0.4,6.19,1.19c1.38,0.79,2.47,1.93,3.28,3.43c0.81,1.5,1.21,3.12,1.21,4.87
			c0,1.41-0.27,2.76-0.81,4.06s-1.3,2.47-2.28,3.51c-0.98,1.05-2.51,1.98-4.59,2.8c0.78,0.43,1.36,0.85,1.75,1.23
			c0.39,0.39,0.86,1.02,1.42,1.88c0.56,0.87,1.05,1.68,1.47,2.44l5.74,10.68h-5.39l-4.98-9.49c-1.21-2.29-2.79-4.3-4.74-6.02h-4.75
			V455.58z M337.19,436.46h4.59c1.94,0,3.41-0.3,4.42-0.9c1-0.6,1.8-1.47,2.39-2.61c0.59-1.14,0.89-2.37,0.89-3.67
			c0-1.13-0.23-2.15-0.7-3.04s-1.15-1.64-2.05-2.25c-0.9-0.61-2.43-0.91-4.59-0.91h-4.94V436.46z"/>
		<path d="M374.14,455.58v-32.5h-12.28v-3.61h29.08v3.61h-12.1v32.5H374.14z"/>
	</g>
	<g>
		<path d="M314.11,300.45c-0.29,0-0.59-0.06-0.88-0.18c-21.92-9.29-37.12-15.07-62.29-13.56l-4.78,0.36
			c-1.27,0.09-2.32-0.83-2.42-2.06c-0.1-1.23,0.81-2.32,2.04-2.43c1.69-0.15,3.33-0.28,4.94-0.38l64.17-4.89L205.84,274
			c-1.21-0.04-2.18-1.03-2.19-2.24c-0.01-1.22,0.95-2.22,2.17-2.26l142.47-5.53l-191.87-4.57c-1.22-0.03-2.2-1.03-2.2-2.25
			s0.97-2.23,2.19-2.26l182.73-4.91l-222.29-2.6c-1.23-0.01-2.22-1.01-2.23-2.24c-0.01-1.23,0.97-2.24,2.2-2.27l254.78-6.75
			l-286.6-2.03c-1.25-0.01-2.25-1.03-2.24-2.27c0.01-1.24,1.02-2.24,2.25-2.24c0,0,0.01,0,0.02,0l420.92,2.98
			c1.23,0.01,2.23,1,2.24,2.23c0.01,1.23-0.96,2.24-2.2,2.28l-270.97,7.18l221.2,2.58c1.23,0.01,2.22,1.01,2.23,2.24
			c0.01,1.23-0.97,2.24-2.19,2.27L245.53,257l174.87,4.16c1.22,0.03,2.19,1.02,2.2,2.24c0.01,1.22-0.95,2.22-2.17,2.27l-149.3,5.8
			l86.2,2.62c1.2,0.04,2.16,1,2.19,2.2c0.03,1.2-0.89,2.21-2.08,2.3l-75.85,5.79c10.96,2.43,21.16,6.55,33.41,11.74
			c1.15,0.49,1.68,1.81,1.2,2.96C315.83,299.93,314.99,300.45,314.11,300.45z"/>
	</g>
	<g>
		<polygon points="203.79,143.3 194.51,163.77 184.7,149.49 176.05,122.83 191.53,135.27 		"/>
		<path d="M194.51,166.63c-0.94,0-1.82-0.46-2.36-1.24l-9.8-14.28c-0.16-0.23-0.28-0.48-0.36-0.74l-8.66-26.66
			c-0.39-1.21,0.06-2.52,1.1-3.24c1.04-0.72,2.44-0.67,3.42,0.12l15.37,12.35l12.15,7.95c1.18,0.77,1.62,2.3,1.04,3.58l-9.29,20.47
			c-0.43,0.94-1.33,1.58-2.36,1.67C194.67,166.63,194.59,166.63,194.51,166.63z M187.3,148.21l6.69,9.75l6.17-13.61l-10.21-6.68
			c-0.08-0.05-0.15-0.11-0.23-0.16l-7.99-6.42L187.3,148.21z"/>
	</g>
	<g>
		<polygon points="311.98,115.09 304.47,135.27 294.38,122.32 276.66,89.41 266.46,55.12 284.69,79.78 297.48,99.04 		"/>
		<path d="M304.47,138.14c-0.88,0-1.71-0.4-2.26-1.11l-10.09-12.96c-0.1-0.13-0.19-0.26-0.26-0.4l-17.71-32.91
			c-0.09-0.17-0.17-0.35-0.22-0.54l-10.21-34.28c-0.4-1.33,0.22-2.76,1.47-3.38c1.25-0.62,2.76-0.26,3.58,0.86l18.23,24.65
			c0.03,0.04,0.06,0.08,0.08,0.12l12.67,19.09l14.36,15.89c0.72,0.79,0.93,1.92,0.56,2.92l-7.51,20.18
			c-0.36,0.97-1.22,1.68-2.25,1.83C304.76,138.13,304.61,138.14,304.47,138.14z M296.79,120.75l6.79,8.71l5.11-13.74l-13.34-14.76
			c-0.1-0.11-0.18-0.22-0.26-0.34l-12.74-19.2l-8.48-11.46l5.46,18.35L296.79,120.75z"/>
	</g>
	<g>
		<polygon points="379.98,147.77 372.06,161.59 342.19,130.92 324.13,95.08 336.23,106.89 350.79,120.43 365.01,139.17 		"/>
		<path d="M372.06,164.46c-0.77,0-1.51-0.31-2.05-0.87l-29.87-30.67c-0.2-0.21-0.38-0.45-0.51-0.71l-18.06-35.83
			c-0.63-1.25-0.26-2.77,0.87-3.6c1.13-0.83,2.69-0.72,3.7,0.26l12.1,11.81l14.51,13.48c0.12,0.11,0.23,0.24,0.33,0.37l13.87,18.28
			l14.46,8.31c1.37,0.79,1.84,2.54,1.06,3.91l-7.91,13.82c-0.45,0.78-1.23,1.31-2.13,1.42C372.3,164.45,372.18,164.46,372.06,164.46
			z M344.56,129.23l26.91,27.63l4.6-8.03l-12.48-7.17c-0.33-0.19-0.62-0.45-0.86-0.75l-14.07-18.55l-14.24-13.23L344.56,129.23z"/>
	</g>
	<g>
		<polygon points="471.94,175.64 448.54,171.34 424.75,150.18 406.86,106.78 437.19,147.77 		"/>
		<path d="M471.94,178.5c-0.17,0-0.35-0.02-0.52-0.05l-23.39-4.3c-0.51-0.09-0.99-0.33-1.39-0.68l-23.79-21.16
			c-0.33-0.29-0.58-0.65-0.75-1.05l-17.89-43.4c-0.55-1.34-0.02-2.88,1.24-3.59c1.26-0.71,2.85-0.37,3.71,0.79l30.11,40.69
			l34.45,27.63c1.02,0.82,1.36,2.23,0.81,3.43C474.07,177.86,473.04,178.5,471.94,178.5z M449.85,168.66l11.43,2.1l-25.88-20.75
			c-0.19-0.15-0.36-0.33-0.51-0.53l-16.54-22.36l8.8,21.35L449.85,168.66z"/>
	</g>
	<g>
		<g>
			<g>
				<path d="M415.41,520.57c2.07-2.44,4.11-4.86,6.11-7.29l5.83-7.42c3.2-0.1,6.34-0.38,9.54-0.59l4.8-0.35
					c1.6-0.13,3.18-0.31,4.78-0.47c-3.87-4.25-7.67-8.49-11.44-12.83c1.91-5.67,3.68-11.33,5.33-16.93l-8.43,3.55
					c-2.8,1.21-5.67,2.23-8.49,3.35c-4.83-3.12-9.61-6.42-14.27-9.76c0.07,5.7,0.06,11.5-0.08,17.19c-2.53,1.66-5.07,3.35-7.65,5
					l-7.82,4.8c5.63,1.83,11.44,3.71,17.29,5.26L415.41,520.57z"/>
			</g>
		</g>
		<g>
			<g>
				<path d="M349.33,538.82c2.53-2.02,5.02-4.03,7.47-6.04c2.46-1.98,4.83-4.15,7.2-6.2c1.58,0.22,3.18,0.45,4.78,0.65l4.79,0.51
					c3.2,0.34,6.45,0.7,9.67,0.89c-3.07-4.86-6.06-9.7-9.01-14.66c1.47-2.55,2.86-5.25,4.24-7.86c1.37-2.63,2.7-5.22,3.99-7.85
					l-8.88,2.01c-2.96,0.66-5.95,1.16-8.91,1.75l-3.1-2.99l-3.06-3.08c-2.02-2.05-4.01-4.12-5.96-6.19
					c-0.97,5.66-2.07,11.23-3.29,16.83c-2.79,1.16-5.59,2.37-8.44,3.41l-4.28,1.62l-2.15,0.81l-2.17,0.74
					c2.58,1.56,5.19,2.94,7.85,4.39c2.65,1.41,5.36,2.9,8.08,4.2C348.56,527.44,348.96,533.13,349.33,538.82z"/>
			</g>
		</g>
		<g>
			<g>
				<path d="M280.43,543.02l4.34-2.07l4.28-2.21l4.22-2.22c1.4-0.73,2.78-1.48,4.16-2.28c3.02,1.06,6.06,2.15,9.14,3.17l9.33,2.88
					c-2.02-5.41-3.95-10.83-5.79-16.26c1.97-2.26,3.9-4.47,5.78-6.76c1.88-2.31,3.71-4.62,5.5-6.92c-6.05,0.21-12.1,0.18-18.13,0.01
					c-3.23-4.85-6.31-9.6-9.22-14.53c-2.14,5.25-4.4,10.5-6.78,15.75c-5.94,1.07-11.96,2.02-18.03,2.72c2.19,2,4.43,4.02,6.71,6.02
					c2.29,1.93,4.62,3.87,6.99,5.8C282.12,531.76,281.29,537.39,280.43,543.02z"/>
			</g>
		</g>
		<g>
			<g>
				<path d="M212.35,532.45l9.27-2.37c3.07-0.86,6.12-1.77,9.12-2.67c2.69,1.78,5.46,3.35,8.23,5.02l4.2,2.47l4.27,2.34
					c-0.8-5.7-1.52-11.38-2.16-17.05c2.41-1.8,4.78-3.61,7.11-5.42c2.33-1.82,4.61-3.62,6.86-5.54c-5.95-1.14-11.87-2.41-17.72-3.91
					c-2.15-5.32-4.12-10.78-5.95-16.18c-3.22,4.71-6.56,9.41-9.98,13.97c-3.02-0.13-6.07-0.17-9.11-0.39l-9.15-0.66
					c1.74,2.42,3.53,4.8,5.35,7.21l2.76,3.62l2.85,3.53C216.36,521.77,214.37,527.11,212.35,532.45z"/>
			</g>
		</g>
		<g>
			<g>
				<path d="M148.28,509l9.47-0.7c3.12-0.23,6.29-0.62,9.39-0.94l3.49,3.29l3.57,3.19l3.61,3.2c1.21,1.08,2.43,2.13,3.68,3.15
					c0.33-5.71,0.76-11.45,1.26-17.17c2.69-1.23,5.37-2.56,8.02-3.9c2.65-1.34,5.26-2.69,7.83-4.05l-8.4-3.55l-8.29-3.79
					c-1.1-5.66-2.02-11.42-2.86-17.05c-4.08,4.05-8.21,7.96-12.44,11.85c-5.96-1.25-11.87-2.77-17.83-4.3
					c1.3,2.68,2.65,5.34,4.02,8.04c1.37,2.7,2.76,5.4,4.23,8.04L148.28,509z"/>
			</g>
		</g>
	</g>
</g>
</svg>
